<svg width="38" height="38" viewBox="0 0 38 38" fill="none" xmlns="http://www.w3.org/2000/svg">
<g id="Resources options" clip-path="url(#clip0_2143_1967)">
<path id="Vector" d="M18.9999 13.1438C19.6215 13.1438 20.2176 13.401 20.6572 13.8589C21.0967 14.3167 21.3436 14.9377 21.3436 15.5852C21.3436 16.2327 21.0967 16.8537 20.6572 17.3115C20.2176 17.7694 19.6215 18.0266 18.9999 18.0266C18.3783 18.0266 17.7821 17.7694 17.3426 17.3115C16.9031 16.8537 16.6561 16.2327 16.6561 15.5852C16.6561 14.9377 16.9031 14.3167 17.3426 13.8589C17.7821 13.401 18.3783 13.1438 18.9999 13.1438ZM8.68738 19.0032C9.30898 19.0032 9.90512 19.2604 10.3447 19.7182C10.7842 20.1761 11.0311 20.7971 11.0311 21.4446C11.0311 22.0921 10.7842 22.7131 10.3447 23.1709C9.90512 23.6288 9.30898 23.886 8.68738 23.886C8.06577 23.886 7.46963 23.6288 7.0301 23.1709C6.59056 22.7131 6.34363 22.0921 6.34363 21.4446C6.34363 20.7971 6.59056 20.1761 7.0301 19.7182C7.46963 19.2604 8.06577 19.0032 8.68738 19.0032ZM26.9686 21.4446C26.9686 20.7971 27.2156 20.1761 27.6551 19.7182C28.0946 19.2604 28.6908 19.0032 29.3124 19.0032C29.934 19.0032 30.5301 19.2604 30.9697 19.7182C31.4092 20.1761 31.6561 20.7971 31.6561 21.4446C31.6561 22.0921 31.4092 22.7131 30.9697 23.1709C30.5301 23.6288 29.934 23.886 29.3124 23.886C28.6908 23.886 28.0946 23.6288 27.6551 23.1709C27.2156 22.7131 26.9686 22.0921 26.9686 21.4446ZM13.5448 33.3708L11.9686 30.3252V32.675C11.9686 33.7554 11.1307 34.6282 10.0936 34.6282H7.28113C6.24402 34.6282 5.40613 33.7554 5.40613 32.675V30.3252L3.82995 33.3708C3.46081 34.085 2.6112 34.3474 1.92566 33.969C1.24011 33.5906 0.988157 32.6995 1.35144 31.9853L3.57214 27.6946C4.46863 25.9551 6.21472 24.8687 8.11316 24.8687H9.25574C10.2108 24.8687 11.1249 25.1433 11.9159 25.6377L13.8846 21.8352C14.7811 20.0957 16.5272 19.0093 18.4257 19.0093H19.5682C21.4667 19.0093 23.2069 20.0957 24.1093 21.8352L26.078 25.6377C26.869 25.1433 27.7831 24.8687 28.7382 24.8687H29.8807C31.7792 24.8687 33.5194 25.9551 34.4218 27.6946L36.6425 31.9853C37.0116 32.6995 36.7538 33.5845 36.0682 33.969C35.3827 34.3535 34.5331 34.085 34.1639 33.3708L32.5936 30.3252V32.675C32.5936 33.7554 31.7557 34.6282 30.7186 34.6282H27.9061C26.869 34.6282 26.0311 33.7554 26.0311 32.675V30.3252L24.455 33.3708C24.0858 34.085 23.2362 34.3474 22.5507 33.969C21.8651 33.5906 21.6132 32.6995 21.9764 31.9853L24.1034 27.8655C24.0038 27.7617 23.9159 27.6458 23.8514 27.5115L22.2811 24.4658V27.7922C22.2811 28.8726 21.4432 29.7454 20.4061 29.7454H17.5936C16.5565 29.7454 15.7186 28.8726 15.7186 27.7922V24.4658L14.1425 27.5115C14.0721 27.6458 13.9901 27.7617 13.8905 27.8655L16.0175 31.9853C16.3866 32.6995 16.1288 33.5845 15.4432 33.969C14.7577 34.3535 13.9081 34.085 13.5389 33.3708H13.5448Z" fill="#2B2B2B"/>
<path id="Vector_2" d="M36.7854 13.2969C36.7854 13.2969 20.8209 3.90624 19.9104 3.53125L19.9104 3.53124C19 3.15625 19 3.15625 18.094 3.53125C17.188 3.90625 1.21317 13.303 1.21317 13.303C0.310821 13.8279 -0.0173034 15.0181 0.486603 15.958C0.990509 16.8979 2.13309 17.2397 3.03543 16.7148L19.0022 7.47412L34.9632 16.7087C35.8655 17.2336 37.0081 16.8918 37.512 15.9519C38.0159 15.012 37.6878 13.8218 36.7854 13.2969Z" fill="#F06748"/>
</g>
<defs>
<clipPath id="clip0_2143_1967">
<rect width="37.5" height="37.5" fill="white" transform="translate(0.25)"/>
</clipPath>
</defs>
</svg>
