<svg width="38" height="38" viewBox="0 0 38 38" fill="none" xmlns="http://www.w3.org/2000/svg">
<g id="Search">
<path id="Union" fill-rule="evenodd" clip-rule="evenodd" d="M11.0718 5.19664C9.6653 6.60316 8.87512 8.51082 8.87512 10.4999C8.87512 12.4891 9.6653 14.3967 11.0718 15.8032C12.4783 17.2098 14.386 17.9999 16.3751 17.9999C18.3642 17.9999 20.2719 17.2098 21.6784 15.8032C23.0849 14.3967 23.8751 12.4891 23.8751 10.4999C23.8751 8.51082 23.0849 6.60316 21.6784 5.19664C20.2719 3.79012 18.3642 2.99994 16.3751 2.99994C14.386 2.99994 12.4783 3.79012 11.0718 5.19664ZM13.6974 20.8124C7.9259 20.8124 3.25012 25.4882 3.25012 31.2597C3.25012 32.2206 4.02942 32.9999 4.99036 32.9999H27.7599C28.7208 32.9999 29.5001 32.2206 29.5001 31.2597C29.5001 31.1525 29.4985 31.0458 29.4953 30.9394C28.5668 31.3013 27.5566 31.5 26.5 31.5C21.9437 31.5 18.25 27.8063 18.25 23.25C18.25 22.4014 18.3781 21.5828 18.6161 20.8124H13.6974Z" fill="#2B2B2B"/>
<path id="Union_2" fill-rule="evenodd" clip-rule="evenodd" d="M31.868 27.1558C32.6769 26.0473 33.1571 24.6811 33.1571 23.2021C33.1571 19.4999 30.1566 16.5 26.4536 16.5C22.7506 16.5 19.7502 19.4999 19.7502 23.2021C19.7502 26.9044 22.7506 29.9043 26.4536 29.9043C27.9329 29.9043 29.2994 29.4274 30.408 28.6154L34.4881 32.6979C34.891 33.1007 35.5452 33.1007 35.948 32.6979C36.3509 32.2951 36.3509 31.641 35.948 31.2383L31.868 27.1558ZM22.5616 23.2226C22.5616 21.079 24.2994 19.3412 26.443 19.3412C28.5867 19.3412 30.3245 21.079 30.3245 23.2226C30.3245 25.3663 28.5867 27.1041 26.443 27.1041C24.2994 27.1041 22.5616 25.3663 22.5616 23.2226Z" fill="#F06748"/>
</g>
</svg>
