<svg width="38" height="38" viewBox="0 0 38 38" fill="none" xmlns="http://www.w3.org/2000/svg">
<g id="Vote" clip-path="url(#clip0_2143_2018)">
<path id="Vector" d="M0.5 25.0826C0.5 23.3265 1.89974 21.9018 3.625 21.9018H4.66667V30.3839H33.8333V21.9018H34.875C36.6003 21.9018 38 23.3265 38 25.0826V31.4442C38 33.2003 36.6003 34.625 34.875 34.625H3.625C1.89974 34.625 0.5 33.2003 0.5 31.4442V25.0826Z" fill="#2B2B2B"/>
<path id="Subtract" fill-rule="evenodd" clip-rule="evenodd" d="M6.75006 8.1183C6.75006 6.36223 8.1498 4.9375 9.87506 4.9375H28.6251C30.3503 4.9375 31.7501 6.36223 31.7501 8.1183V28.2634H6.75006V8.1183ZM27.1276 11.2328C26.5157 10.6099 25.5261 10.6099 24.9206 11.2328L17.6941 18.5884L14.6342 15.4739C14.0222 14.851 13.0326 14.851 12.4271 15.4739C11.8217 16.0968 11.8151 17.1041 12.4271 17.7203L16.5938 21.9614C17.2058 22.5843 18.1954 22.5843 18.8008 21.9614L27.1276 13.4859C27.7396 12.863 27.7396 11.8557 27.1276 11.2395V11.2328Z" fill="#F06748"/>
</g>
<defs>
<clipPath id="clip0_2143_2018">
<rect width="37.5" height="37.5" fill="white" transform="translate(0.25)"/>
</clipPath>
</defs>
</svg>
